<svg width="185" height="85" viewBox="0 0 185 85" fill="none" xmlns="http://www.w3.org/2000/svg">
<path d="M62.7116 36.4134C66.5849 36.4134 69.8175 33.5594 69.8175 29.2201C69.8175 24.9099 66.5849 22.1141 62.7116 22.1141C58.8091 22.1141 55.6056 24.9099 55.6056 29.2201C55.6056 33.5594 58.8091 36.4134 62.7116 36.4134ZM62.7116 35.1612C59.508 35.1612 56.887 32.8022 56.887 29.2201C56.887 25.6962 59.508 23.3664 62.7116 23.3664C65.8859 23.3664 68.5361 25.6962 68.5361 29.2201C68.5361 32.8022 65.8859 35.1612 62.7116 35.1612Z" fill="white"/>
<path d="M79.6565 22.1141C77.2102 22.1141 75.6084 23.8906 75.0259 26.1913V22.4636H73.7445V36.064H75.0259V30.7927C75.0842 27.6475 75.9579 23.3664 79.6274 23.3664C80.0933 23.3664 80.7049 23.4247 81.3456 23.6576L81.6659 22.4345C80.9961 22.2015 80.2681 22.1141 79.6565 22.1141Z" fill="white"/>
<path d="M95.297 25.5506C94.1903 23.512 91.9479 22.1141 89.4142 22.1141C85.5118 22.1141 82.3956 25.3176 82.3956 29.2492C82.3956 33.239 85.57 36.4134 89.3851 36.4134C91.977 36.4134 94.1903 34.9864 95.297 32.8896V36.064H96.5784V22.4636H95.297V25.5506ZM89.4725 35.1612C86.2689 35.1612 83.677 32.4819 83.677 29.2492C83.677 26.0457 86.2689 23.3664 89.4433 23.3664C92.5886 23.3664 95.297 25.871 95.297 29.3657C95.297 32.6857 92.6177 35.1612 89.4725 35.1612Z" fill="white"/>
<path d="M107.677 22.1141C105.755 22.1141 103.542 23.0169 102.755 25.2594V22.4636H101.474V36.064H102.755V28.4047C102.843 24.7934 105.201 23.3955 107.59 23.3955C110.065 23.3955 111.929 25.2303 111.929 28.1426V36.064H113.21V28.0843C113.21 24.3857 110.88 22.1141 107.677 22.1141Z" fill="white"/>
<path d="M129.636 25.4924C128.5 23.4829 126.287 22.1141 123.753 22.1141C119.88 22.1141 116.734 25.2303 116.734 29.2492C116.734 33.2682 119.88 36.4134 123.753 36.4134C126.258 36.4134 128.529 35.0447 129.636 33.0643V34.2875C129.636 40.0538 127.189 41.7429 123.607 41.7429C121.86 41.7429 119.795 41.8885 117.61 42.2526L118.19 43.3447C120.739 43.0534 121.394 42.9952 123.607 42.9952C127.947 42.9952 130.917 40.9566 130.917 34.2292V22.4636H129.636V25.4924ZM123.811 35.1612C120.637 35.1612 118.016 32.511 118.016 29.2492C118.016 25.9875 120.637 23.3664 123.811 23.3664C126.927 23.3664 129.636 25.8127 129.636 29.3657C129.636 32.7148 126.986 35.1612 123.811 35.1612Z" fill="white"/>
<path d="M148.638 29.2201C148.638 24.939 145.842 22.1141 141.969 22.1141C138.154 22.1141 135.096 24.939 135.096 29.2201C135.096 33.5303 138.154 36.4134 141.969 36.4134C144.474 36.4134 146.716 35.1612 147.939 33.0643L146.803 32.511C145.813 34.1419 144.037 35.1612 141.998 35.1612C138.911 35.1612 136.669 33.0643 136.407 29.7734H148.638V29.2201ZM136.407 28.6668C136.698 25.3468 138.94 23.3664 141.969 23.3664C144.969 23.3664 147.153 25.4341 147.357 28.6668H136.407Z" fill="white"/>
<path d="M128.383 42.2526C128.383 43.6599 127.242 44.8008 125.834 44.8008C124.427 44.8008 123.286 43.6599 123.286 42.2526C123.286 40.8452 124.427 39.7043 125.834 39.7043C127.242 39.7043 128.383 40.8452 128.383 42.2526Z" fill="white"/>
<path d="M63.76 46.8682C61.2263 46.8682 58.9547 48.2661 57.8481 50.3047V47.2177H56.5667V67.3998H57.8481V57.731C58.9547 59.7696 61.1972 61.1675 63.76 61.1675C67.6042 61.1675 70.7495 58.0514 70.7495 54.0324C70.7495 50.0135 67.6042 46.8682 63.76 46.8682ZM63.7017 59.9152C60.5856 59.9152 57.8481 57.4689 57.8481 53.9159C57.8481 50.5668 60.5274 48.1205 63.7017 48.1205C66.8761 48.1205 69.4681 50.7707 69.4681 54.0324C69.4681 57.2942 66.8761 59.9152 63.7017 59.9152Z" fill="white"/>
<path d="M80.595 46.8682C78.1487 46.8682 76.5469 48.6447 75.9645 50.9454V47.2177H74.6831V60.818H75.9645V55.5468C76.0227 52.4016 76.8964 48.1205 80.5659 48.1205C81.0319 48.1205 81.6434 48.1788 82.2841 48.4117L82.6045 47.1886C81.9347 46.9556 81.2066 46.8682 80.595 46.8682Z" fill="white"/>
<path d="M96.2356 50.3047C95.1289 48.2661 92.8864 46.8682 90.3527 46.8682C86.4503 46.8682 83.3341 50.0717 83.3341 54.0033C83.3341 57.9931 86.5085 61.1675 90.3236 61.1675C92.9156 61.1675 95.1289 59.7405 96.2356 57.6437V60.818H97.517V47.2177H96.2356V50.3047ZM90.411 59.9152C87.2075 59.9152 84.6156 57.2359 84.6156 54.0033C84.6156 50.7998 87.2075 48.1205 90.3819 48.1205C93.5271 48.1205 96.2356 50.6251 96.2356 54.1198C96.2356 57.4398 93.5563 59.9152 90.411 59.9152Z" fill="white"/>
<path d="M108.586 61.1675C110.363 61.1675 111.965 60.5559 113.217 59.5366L112.401 58.6047C111.382 59.4202 110.042 59.9152 108.586 59.9152C105.354 59.9152 102.733 57.5272 102.733 53.9742C102.733 50.4503 105.354 48.1205 108.586 48.1205C110.042 48.1205 111.411 48.6447 112.401 49.431L113.188 48.4991C111.965 47.5089 110.334 46.8682 108.586 46.8682C104.684 46.8682 101.451 49.6931 101.451 53.9742C101.451 58.2844 104.684 61.1675 108.586 61.1675Z" fill="white"/>
<path d="M118.899 47.2177V42.1503L117.618 42.2523V47.2177H115.142V48.3535H117.618V60.818H118.899V48.3535H122.19V47.2177H118.899Z" fill="white"/>
<path d="M125.777 43.2279C126.417 43.2279 126.913 42.791 126.913 42.2086C126.913 41.597 126.417 41.1602 125.777 41.1602C125.165 41.1602 124.67 41.597 124.67 42.2086C124.67 42.791 125.165 43.2279 125.777 43.2279ZM126.417 60.818V47.2177H125.136V60.818H126.417Z" fill="white"/>
<path d="M137.482 61.1675C139.258 61.1675 140.86 60.5559 142.112 59.5366L141.297 58.6047C140.277 59.4202 138.938 59.9152 137.482 59.9152C134.249 59.9152 131.628 57.5272 131.628 53.9742C131.628 50.4503 134.249 48.1205 137.482 48.1205C138.938 48.1205 140.307 48.6447 141.297 49.431L142.083 48.4991C140.86 47.5089 139.229 46.8682 137.482 46.8682C133.579 46.8682 130.347 49.6931 130.347 53.9742C130.347 58.2844 133.579 61.1675 137.482 61.1675Z" fill="white"/>
<path d="M155.978 54.9061C155.891 58.5173 153.561 59.9152 151.173 59.9152C148.697 59.9152 146.804 58.0805 146.804 55.1682V47.2177H145.523V55.1973C145.523 58.8959 147.882 61.1675 151.085 61.1675C152.949 61.1675 155.163 60.2938 155.978 58.1096V60.818H157.259V47.2177H155.978V54.9061Z" fill="white"/>
<path d="M178.619 46.8682C176.813 46.8682 174.28 47.5963 173.377 50.5086C172.678 48.1496 170.756 46.8682 168.368 46.8682C166.329 46.8682 164.232 47.771 163.475 49.9261V47.2177H162.194V60.818H163.475V53.1588C163.562 49.5475 165.834 48.1205 168.222 48.1205C170.668 48.1205 172.503 49.9552 172.503 52.8675V60.818H173.785V53.7703C173.785 49.664 175.852 48.1205 178.502 48.1205C180.978 48.1205 182.842 49.9844 182.842 52.8966V60.818H184.123V52.8384C184.123 49.1398 181.822 46.8682 178.619 46.8682Z" fill="white"/>
<path d="M21.4441 42.2086C21.4441 42.791 20.949 43.2279 20.3083 43.2279C19.6967 43.2279 19.2017 42.791 19.2017 42.2086C19.2017 41.597 19.6967 41.1602 20.3083 41.1602C20.949 41.1602 21.4441 41.597 21.4441 42.2086Z" fill="white"/>
<path d="M15.5612 0.999999L44.684 11.375L44.684 73.625L15.5612 84" stroke="white" stroke-width="0.5"/>
<path d="M15.5614 72.7147L1 72.7147L0.999997 10.4647L15.5614 10.4647" stroke="white" stroke-width="0.5"/>
<path d="M15.7439 1L15.7439 84" stroke="white" stroke-width="0.5"/>
</svg>
