<svg width="157" height="246" viewBox="0 0 157 246" fill="none" xmlns="http://www.w3.org/2000/svg">
<g clip-path="url(#clip0_180_639)">
<path fill-rule="evenodd" clip-rule="evenodd" d="M68.836 160.967L68.7357 160.754L68.5806 160.597L68.4438 160.495L68.2706 160.393L68.0882 160.366L67.8784 160.338L67.6778 160.393L67.4407 160.467L67.1854 160.597L66.9209 160.754L66.6382 160.967L66.3555 161.226L65.863 161.781L65.3979 162.308L64.9875 162.826L64.6228 163.354L64.3127 163.853L64.03 164.353L63.7929 164.852L63.5923 165.343L63.3004 166.296L63.1454 167.258L63.1272 168.229L63.2001 169.201L63.3278 169.802L63.5102 170.274L63.7655 170.616L64.0574 170.829L64.3948 170.931L64.7778 170.903L65.1882 170.746L65.635 170.459L66.5379 169.469L67.2857 168.498L67.9058 167.526L68.3982 166.527L68.7539 165.5L68.991 164.427L69.1187 163.298V162.068L69.0184 161.439L68.836 160.967Z" fill="white"/>
<path fill-rule="evenodd" clip-rule="evenodd" d="M93.3583 166.713L93.1029 165.584L92.7655 164.557L92.2731 163.567L91.7076 162.651L90.9781 161.754L90.1026 160.893L89.6101 160.523L89.145 160.311L88.9171 160.255H88.7073L88.5249 160.283L88.3425 160.338L88.1875 160.44L88.0325 160.57L87.9048 160.755L87.8045 160.995L87.7224 161.254L87.6494 161.569L87.5947 161.911L87.5674 162.309L87.5947 163.067L87.6494 163.771L87.7224 164.427L87.8592 165.057L87.9869 165.639L88.1419 166.185L88.3243 166.713L88.5249 167.212L88.99 168.073L89.5828 168.859L90.2303 169.571L90.9781 170.2L91.4705 170.515L91.9356 170.718L92.3551 170.774L92.7108 170.718L93.0209 170.543L93.2853 170.228L93.4677 169.83L93.568 169.303L93.5133 167.943L93.3583 166.713Z" fill="white"/>
<path fill-rule="evenodd" clip-rule="evenodd" d="M88.0599 111.453L88.1693 111.666L88.297 111.823L88.452 111.953L88.6071 112.036L88.7804 112.082H88.9901L89.2272 112.054L89.4552 111.98L89.6923 111.879L89.975 111.694L90.2304 111.509L90.5404 111.249L91.0602 110.694L91.5253 110.167L91.9357 109.649L92.3278 109.149L92.6653 108.65L92.948 108.15L93.176 107.651L93.3857 107.151L93.6958 106.207L93.8508 105.236L93.9055 104.265L93.8508 103.302L93.7505 102.72L93.5681 102.248L93.3127 101.887L93.0209 101.674L92.6653 101.572L92.2731 101.591L91.8628 101.73L91.425 102.016L90.4948 102.988L89.7197 103.95L89.0995 104.903L88.5797 105.893L88.2149 106.892L87.9596 107.965L87.8319 109.122L87.8046 110.352L87.8775 110.981L88.0599 111.453Z" fill="white"/>
<path fill-rule="evenodd" clip-rule="evenodd" d="M69.2282 108.391L69.1461 107.734L69.0458 107.105L68.9181 106.522L68.7813 105.948L68.5989 105.449L68.3983 104.949L67.9332 104.061L67.386 103.247L66.7385 102.535L66.0181 101.905L65.4983 101.572L65.0605 101.387L64.6228 101.304L64.258 101.36L63.948 101.545L63.72 101.859L63.5102 102.248L63.4099 102.775L63.4555 104.135L63.5923 105.375L63.8203 106.494L64.1577 107.549L64.6228 108.52L65.1882 109.464L65.8904 110.352L66.7385 111.222L67.231 111.583L67.6961 111.795L67.9332 111.879H68.1429H68.3162L68.4986 111.795L68.6536 111.721L68.8087 111.564L68.9363 111.407L69.0458 111.166L69.1187 110.907L69.2008 110.593L69.2464 110.25L69.2738 109.852L69.2464 109.094L69.2282 108.391Z" fill="white"/>
<path fill-rule="evenodd" clip-rule="evenodd" d="M112.354 149.505L112.071 149.06L111.085 148.145L110.127 147.358L109.196 146.729L108.211 146.23L107.207 145.859L106.148 145.628L105.035 145.499H103.812L103.191 145.6L102.726 145.758L102.525 145.887L102.37 146.017L102.26 146.174L102.16 146.331L102.105 146.516V146.729L102.133 146.933L102.215 147.173L102.342 147.432L102.498 147.701L102.707 147.987L102.963 148.274L103.511 148.801L104.022 149.246L104.542 149.662L105.053 150.032L105.546 150.374L106.039 150.661L106.531 150.892L107.024 151.105L107.955 151.392L108.913 151.549L109.872 151.605L110.83 151.531L111.396 151.392L111.861 151.207L112.199 150.948L112.427 150.661L112.537 150.319L112.509 149.93L112.354 149.505Z" fill="white"/>
<path fill-rule="evenodd" clip-rule="evenodd" d="M54.3293 146.072L54.2198 145.915L54.0647 145.758L53.9095 145.628L53.6814 145.517L53.4258 145.443L53.1155 145.36L52.7779 145.314L52.3854 145.286L51.6371 145.314L50.9343 145.36L50.2955 145.415L49.6749 145.517L49.0999 145.656L48.5615 145.813L48.0413 145.998L47.5485 146.174L46.6723 146.646L45.8966 147.229L45.1939 147.876L44.5733 148.616L44.2356 149.144L44.0531 149.616L43.9801 150.032L44.0348 150.402L44.2082 150.717L44.5185 150.976L44.911 151.161L45.4312 151.262L46.7727 151.207L47.9865 151.077L49.0999 150.818L50.1403 150.476L51.0895 150.032L52.0021 149.431L52.9056 148.718L53.7544 147.858L54.1194 147.358L54.3293 146.886L54.4023 146.442L54.3841 146.257L54.3293 146.072Z" fill="white"/>
<path fill-rule="evenodd" clip-rule="evenodd" d="M156.981 134.212L156.908 132.167L156.817 130.151L156.634 128.134L156.433 126.135L156.15 124.146L155.84 122.176L155.448 120.214L154.991 118.299L154.553 116.384L154.079 114.469L153.531 112.619L152.938 110.769L152.29 108.918L151.624 107.068L150.894 105.283L150.118 103.497L149.315 101.739L148.42 100.046L147.508 98.3439L146.595 96.6601L145.637 95.0133L144.633 93.3851L143.602 91.7846L142.516 90.1655L141.411 88.6483L140.271 87.1218L139.075 85.6323L137.861 84.1613L136.62 82.7643L135.324 81.3766L134.001 79.9889L132.65 78.6567L131.263 77.3614L129.894 76.1032L128.443 74.8728L126.974 73.6608L125.468 72.5137L123.962 71.385L122.41 70.284L120.832 69.2294L119.225 68.2117L117.574 67.2403L115.913 66.3151L114.233 65.39L112.527 64.5296L110.793 63.7155L109.059 62.9291L107.233 62.1982L105.408 61.5136L103.583 60.8567L101.758 60.2554L99.9323 59.7003L98.1071 59.1822L96.2362 58.7104L94.3288 58.2941L92.3849 57.8963L90.441 57.5817L88.5062 57.2949L86.544 57.1191L84.5819 56.9341L82.5649 56.8046L80.548 56.7213H78.5311H76.5142L74.4882 56.8046L72.4986 56.9341L70.5091 57.1191L68.5469 57.3227L66.5756 57.6095L64.6409 57.924L62.7061 58.3218L60.7713 58.7104L58.8822 59.1637L56.993 59.6818L55.1678 60.2369L53.3425 60.8382L51.5172 61.4951L49.692 62.1797L47.9306 62.9106L46.1692 63.697L44.4352 64.5111L42.7377 65.3992L41.0585 66.3244L39.3975 67.2495L37.773 68.2209L36.1668 69.2386L34.6153 70.284L33.0364 71.385L31.5397 72.5137L30.0339 73.6608L28.5645 74.8728L27.1135 76.1032L25.7171 77.3614L24.3482 78.6752L22.9975 79.9889L21.6833 81.3766L20.3874 82.7643L19.1462 84.1798L17.9324 85.6508L16.7368 87.1403L15.6052 88.6668L14.4918 90.1655L13.4057 91.7846L12.3653 93.3851L11.3614 95.0133L10.4032 96.6416L9.49054 98.3254L8.57791 100.028L7.72916 101.73L6.92604 103.488L6.15031 105.273L5.42933 107.059L4.75398 108.909L4.10601 110.759L3.5128 112.61L2.96522 114.46L2.45415 116.375L2.00696 118.29L1.59628 120.205L1.21297 122.167L0.902676 124.137L0.610634 126.126L0.41898 128.097L0.236455 130.114L0.108687 132.13L0.0265503 134.175V136.229L0.0813077 138.819L0.181698 141.419L0.391603 143.991L0.674518 146.507L1.03957 149.024L1.47763 151.512L1.97045 154.001L2.58192 156.453L3.22989 158.867L3.95087 161.226L4.75398 163.558L5.66661 165.871L6.57924 168.147L7.58314 170.376L8.64179 172.587L9.78258 174.734L10.1203 175.363L10.4853 175.964L11.8816 178.166L13.351 180.349L14.8751 182.496L16.4813 184.624L18.0967 186.714L19.8033 188.814L21.5373 190.887L23.3625 192.931L25.1878 194.976L27.0131 197.002L30.837 200.98L34.7704 204.94L38.786 208.881L46.9084 216.689L50.9514 220.612L55.0126 224.516L58.9917 228.448L62.8977 232.408L66.7034 236.423L68.5287 238.44L70.3539 240.484L70.8741 241.095L71.3943 241.668L71.9145 242.196L72.453 242.695L72.9732 243.139L73.4843 243.528L74.0045 243.898L74.5247 244.213L75.0449 244.499L75.5559 244.74L76.0761 244.943L76.6146 245.101L77.655 245.313L78.6863 245.369L79.7267 245.258L80.7579 245.027L81.7892 244.629L82.8296 244.083L83.8883 243.398L84.9195 242.584L85.9599 241.613L86.9912 240.512L88.9077 238.255L90.8973 236.034L92.9142 233.823L94.9859 231.621L99.2022 227.301L103.501 223.027L107.872 218.826L112.216 214.682L116.56 210.565L120.804 206.531L122.876 204.533L124.92 202.544L126.937 200.545L128.872 198.584L130.788 196.613L132.614 194.671L134.439 192.709L136.173 190.794L137.807 188.851L139.376 186.936L140.855 185.021L142.224 183.106L143.52 181.256L144.706 179.406L145.792 177.555L146.778 175.705L147.042 175.233L147.298 174.761L148.439 172.606L149.516 170.247L150.501 168.017L151.414 165.769L152.327 163.456L153.13 161.125L153.851 158.766L154.499 156.379L155.092 153.964L155.585 151.494L156.023 149.033L156.388 146.517L156.671 144L156.881 141.428L156.981 138.856L157.036 136.266L156.981 134.212ZM18.5803 127.061V126.32L18.6899 125.534L18.845 124.692L19.1005 123.258L19.4108 121.815L19.7485 120.372L20.1318 118.929L20.5516 117.485L21.0627 116.07L21.5738 114.627L22.1214 113.156L22.7146 111.712L23.3352 110.251L24.0105 108.807L24.7041 107.336L26.2373 104.422L27.9166 101.489L28.3273 100.777L28.7471 100.148L29.2125 99.6021L29.7053 99.1303L30.189 98.7324L30.7092 98.4179L31.2568 98.1866L31.7861 98.0016L32.3337 97.9183H32.9269L33.4927 98.0016L34.086 98.1866L34.6883 98.4457L35.2815 98.8157L35.8747 99.2598L36.4679 99.7871L59.8952 123.119L60.461 123.804L60.8991 124.489L61.2367 125.192L61.4193 125.932L61.5197 126.663V127.375L61.3919 128.078L61.1637 128.763L60.8261 129.392L60.388 129.993L59.8678 130.548L59.2472 131.02L58.5445 131.437L57.7687 131.779L56.9474 132.038L56.0347 132.195L24.0926 132.436L23.2348 132.325L22.4317 132.167L21.7381 131.964L21.1175 131.668L20.5699 131.353L20.0771 130.992L19.6664 130.567L19.3287 130.095L19.0093 129.605L18.8085 129.022L18.6534 128.421L18.5803 127.764V127.061ZM37.2619 172.189L36.5683 172.717L35.893 173.161L35.245 173.531L34.6244 173.79L34.0038 173.947L33.4106 174.021H32.8174L32.2516 173.92L31.704 173.762L31.1564 173.503L30.6453 173.161L30.1251 172.763L29.6049 172.273L29.1212 171.718L28.6558 171.089L28.1356 170.376L27.3416 169.173L26.5385 167.943L25.7901 166.657L25.06 165.371L24.3664 164.03L23.6911 162.67L23.0431 161.282L22.4499 159.866L21.8567 158.395L21.2817 156.924L20.2231 153.862L19.3105 150.707L18.4526 147.432L18.2518 146.646L18.0967 145.887V145.175V144.5V143.824L18.2518 143.223L18.4617 142.668L18.7446 142.168L19.0823 141.724L19.5021 141.326L19.9675 140.966L20.506 140.679L21.1266 140.438L21.8019 140.281L22.5229 140.179L23.326 140.124L56.1808 139.994L57.0934 140.068L57.8965 140.225L58.6266 140.522L59.2746 140.882L59.8404 141.354L60.3059 141.882L60.6892 142.455L60.9995 143.112L61.2094 143.824L61.3189 144.527V145.314L61.2185 146.082L61.0086 146.887L60.6983 147.673L60.2602 148.459L59.7218 149.227L37.2619 172.189ZM74.3878 191.988L74.2052 192.802L74.0045 193.514L73.7398 194.143L73.4295 194.717L73.0736 195.189L72.6538 195.605L72.1883 195.947L71.6773 196.234L71.1023 196.447L70.5091 196.576L69.8611 196.66H69.1858H68.4374L67.6617 196.53L66.8586 196.373L65.4349 196.105L64.0112 195.79L62.5966 195.429L61.1729 195.031L59.7492 194.615L58.2524 194.088L56.8287 193.588L55.3777 193.015L53.9539 192.413L52.5302 191.775L49.7011 190.359L46.7989 188.814L43.9333 187.112L43.2305 186.696L42.6099 186.243L42.0715 185.771L41.5969 185.299L41.2136 184.781L40.9124 184.253L40.6752 183.726L40.52 183.18L40.447 182.597V182.024L40.5474 181.423L40.7299 180.84L40.9855 180.238L41.3231 179.637L41.7703 179.036L42.3088 178.434L65.3892 154.75L66.0555 154.177L66.7308 153.723L67.4518 153.409L68.1545 153.205L68.8755 153.122H69.6056L70.2718 153.252L70.9472 153.52L71.5677 153.853L72.1609 154.279L72.7085 154.824L73.174 155.435L73.5847 156.138L73.9223 156.924L74.1505 157.794L74.3056 158.719L74.4608 191.1L74.3878 191.988ZM74.4699 114.627L74.2874 115.441L74.0045 116.172L73.6394 116.828L73.174 117.402L72.6538 117.874L72.0879 118.272L71.44 118.586L70.7372 118.799L70.0163 118.901H69.204L68.483 118.845L67.6799 118.632L66.9042 118.318L66.1284 117.874L65.3801 117.319L42.7925 94.4027L42.2723 93.7274L41.8251 93.0428L41.4874 92.3859L41.2319 91.729L41.0858 91.0907L41.0037 90.4893V89.9158L41.0858 89.3329L41.2684 88.7593L41.5239 88.2042L41.8342 87.6861L42.2449 87.1588L42.7103 86.6592L43.2579 86.1596L43.8785 85.6878L44.5721 85.216L45.7676 84.4019L46.9814 83.597L48.2135 82.8383L49.4821 82.1075L50.7962 81.3951L52.1469 80.7475L53.5433 80.0906L54.9396 79.4615L56.4272 78.8602L57.8691 78.3051L60.8991 77.2597L64.0294 76.2883L67.2601 75.4464L68.045 75.2336L68.7933 75.1041L69.4869 75.0486H70.1623L70.8102 75.1318L71.3761 75.2891L71.9237 75.5019L72.4347 75.7887L72.8819 76.131L73.2652 76.5473L73.6029 77.0191L73.8858 77.5742L74.1231 78.2033L74.2965 78.8787L74.406 79.6188V80.4329L74.479 113.738L74.4699 114.627ZM82.8935 81.2193L83.0304 80.3497L83.2038 79.5633L83.4137 78.8324L83.6966 78.2033L84.0343 77.6482L84.3993 77.1764L84.81 76.7601L85.2755 76.4455L85.7957 76.1588L86.3615 75.9737L86.9547 75.8442L87.6027 75.7609H88.3693L89.0903 75.8442L89.866 75.946L90.6691 76.131L92.0928 76.4178L93.5165 76.7601L94.9129 77.1209L96.3366 77.5465L97.7603 77.9905L99.184 78.4901L100.608 79.036L102.031 79.6188L103.446 80.2479L104.797 80.914L106.22 81.6171L107.671 82.3573L110.519 83.9485L113.385 85.7063L114.087 86.1319L114.708 86.576L115.228 87.0755L115.693 87.5474L116.077 88.0655L116.387 88.5928L116.624 89.1479L116.78 89.7215L116.825 90.2766V90.8502L116.716 91.4515L116.533 92.0251L116.25 92.6357L115.894 93.237L115.447 93.8106L114.909 94.412L91.4722 117.726L90.7969 118.309L90.0942 118.725L89.3732 119.04L88.6522 119.252L87.9221 119.308H87.2011L86.5258 119.151L85.8596 118.91L85.239 118.54L84.6366 118.096L84.1255 117.55L83.6601 116.921L83.2403 116.209L82.93 115.422L82.7018 114.562L82.5741 113.637L82.8935 81.2193ZM116.159 181.894L116.077 182.496L115.903 183.051L115.666 183.597L115.328 184.124L114.945 184.642L114.452 185.169L113.905 185.669L113.284 186.141L112.591 186.613L111.395 187.454L110.181 188.232L108.94 188.99L107.671 189.749L106.357 190.48L105.007 191.164L103.638 191.849L102.241 192.478L100.818 193.079L99.3665 193.681L96.3639 194.754L93.261 195.753L90.0303 196.678L89.2545 196.882L88.5062 197.039L87.8035 197.095H87.1099L86.4893 197.039L85.8869 196.882L85.3485 196.678L84.8557 196.41L84.3902 196.068L83.9978 195.651L83.6419 195.152L83.3589 194.624L83.1217 193.995L82.9391 193.32L82.8387 192.58L82.784 191.766L82.3459 158.46L82.4007 157.535L82.5832 156.721L82.8387 155.99L83.2038 155.333L83.6419 154.76L84.1529 154.26L84.7553 153.862L85.4032 153.548L86.0695 153.344L86.7996 153.233H87.5479L88.3237 153.344L89.0994 153.529L89.9025 153.844L90.6782 154.26L91.454 154.806L114.27 177.389L114.836 178.055L115.283 178.74L115.639 179.387L115.903 180.044L116.077 180.673L116.159 181.274V181.894ZM137.943 145.675L137.889 146.433L137.788 147.22L137.606 148.034L137.35 149.477L137.04 150.911L136.675 152.354L136.282 153.797L135.826 155.194L135.333 156.638L134.822 158.081L134.275 159.524L133.654 160.967L133.088 162.438L132.386 163.872L131.692 165.343L130.14 168.258L128.434 171.163L128.014 171.875L127.576 172.504L127.11 173.059L126.645 173.531L126.125 173.92L125.614 174.234L125.066 174.475L124.528 174.632H123.953H123.387L122.821 174.53L122.219 174.345L121.626 174.086L121.06 173.716L120.467 173.272L119.864 172.717L96.583 149.246L96.0171 148.561L95.5973 147.849L95.2688 147.146L95.0863 146.415L95.0041 145.675V144.972L95.1593 144.259L95.3966 143.602L95.7251 142.945L96.1723 142.372L96.6834 141.817L97.3039 141.345L98.0067 140.929L98.7824 140.614L99.6312 140.383L100.544 140.225H132.486L133.344 140.327L134.147 140.512L134.84 140.716L135.461 141.012L136.009 141.326L136.501 141.687L136.912 142.113L137.25 142.585L137.505 143.103L137.715 143.686L137.843 144.287L137.925 144.944L137.943 145.675ZM138.564 127.921L138.482 128.578L138.354 129.151L138.126 129.707L137.861 130.234L137.505 130.678L137.086 131.066L136.62 131.409L136.082 131.696L135.461 131.936L134.786 132.121L134.065 132.223H133.262L100.407 132.278L99.4943 132.195L98.6911 132.01L97.9702 131.723L97.3222 131.353L96.7838 130.909L96.2909 130.382L95.8985 129.781L95.6156 129.124L95.4057 128.421L95.2779 127.68V126.922L95.3874 126.135L95.5882 125.349L95.8985 124.563L96.3366 123.749L96.8841 122.99L119.472 100.148L120.165 99.6298L120.841 99.1765L121.489 98.8435L122.137 98.5752L122.757 98.4179L123.35 98.3439H123.962L124.537 98.4457L125.075 98.6029L125.623 98.862L126.134 99.2043L126.654 99.6021L127.147 100.102L127.64 100.648L128.105 101.277L128.571 101.989L129.374 103.192L130.177 104.45L130.925 105.708L131.646 107.022L132.349 108.354L132.997 109.723L133.636 111.111L134.266 112.526L134.859 113.997L135.397 115.468L135.945 116.986L136.438 118.531L137.35 121.704L138.172 124.988L138.382 125.775L138.509 126.533L138.564 127.236V127.921Z" fill="#efa30e"/>
<path fill-rule="evenodd" clip-rule="evenodd" d="M44.1076 122.99L44.3905 123.443L45.3761 124.359L46.3344 125.117L47.2927 125.746L48.2783 126.246L49.2822 126.588L50.3408 126.82L51.4816 126.931H52.6954L53.2886 126.82L53.7815 126.662L53.964 126.533L54.1191 126.403L54.2469 126.246L54.329 126.089L54.3838 125.904V125.691L54.3564 125.487L54.2743 125.247L54.1465 124.988L53.9914 124.729L53.7815 124.433L53.5259 124.146L52.9783 123.646L52.4673 123.175L51.9197 122.758L51.4269 122.388L50.9158 122.074L50.423 121.787L49.9302 121.556L49.4373 121.343L48.4791 121.056L47.5482 120.899L46.5899 120.871L45.6317 120.945L45.0385 121.084L44.573 121.259L44.2353 121.528L44.0346 121.842L43.925 122.185L43.9524 122.573L44.1076 122.99Z" fill="white"/>
<path fill-rule="evenodd" clip-rule="evenodd" d="M112.427 121.602L112.116 121.343L111.733 121.158L111.213 121.056L109.871 121.102L108.658 121.232L107.544 121.472L106.504 121.815L105.545 122.287L104.615 122.86L103.738 123.6L102.881 124.461L102.525 124.96L102.315 125.432L102.242 125.673V125.876V126.061L102.315 126.246L102.397 126.403L102.552 126.561L102.707 126.69L102.935 126.801L103.191 126.875L103.51 126.949L103.839 127.005L104.231 127.033L104.98 127.005L105.682 126.977L106.321 126.903L106.951 126.801L107.517 126.663L108.083 126.505L108.575 126.348L109.068 126.144L109.944 125.673L110.747 125.09L111.45 124.433L112.071 123.674L112.408 123.175L112.582 122.703L112.664 122.287L112.609 121.916L112.427 121.602Z" fill="white"/>
<path fill-rule="evenodd" clip-rule="evenodd" d="M27.0323 0L29.5421 0.259043L31.9788 0.629103L34.3517 1.04542L36.6606 1.545L38.9057 2.14635L41.0869 2.80321L43.1768 3.56183L45.2211 4.40372L47.2106 5.30112L49.1272 6.29103L50.9615 7.36421L52.7503 8.52065L54.4569 9.7511L56.1088 11.0648L57.6876 12.4525L59.1935 13.9235L60.6354 15.4685L62.0318 17.0968L63.3277 18.7991L64.5963 20.5846L65.7827 22.4719L66.8961 24.4148L67.9365 26.4316L68.9404 28.5317L69.853 30.7335L70.7018 32.9909L71.5049 35.3501L72.2258 37.7647L72.8738 40.2534L73.467 42.853L73.9872 45.499L74.4527 48.2559L71.7604 47.9414L69.1503 47.5158L66.6132 47.044L64.1582 46.4981L61.7488 45.8968L59.449 45.1844L57.2222 44.398L55.0775 43.5562L53.0058 42.6125L51.0163 41.6226L49.0998 40.5217L47.2654 39.3652L45.504 38.1348L43.8248 36.821L42.2185 35.4333L40.6944 33.9623L39.2434 32.4173L37.8744 30.7891L36.5785 29.1053L35.3647 27.329L34.2239 25.4602L33.1926 23.5451L32.207 21.5283L31.3308 19.4559L30.5003 17.3096L29.7794 15.0522L29.104 12.7486L28.5382 10.3617L28.0454 7.86379L27.6256 5.31962L27.297 2.70144L27.0323 0Z" fill="white"/>
<path fill-rule="evenodd" clip-rule="evenodd" d="M115.585 14.7097L115.43 16.4675L115.202 18.1975L114.919 19.8813L114.581 21.5003L114.189 23.0823L113.75 24.6273L113.258 26.1168L112.719 27.5601L112.099 28.9478L111.423 30.317L110.721 31.6307L109.945 32.8889L109.123 34.0916L108.211 35.2758L107.28 36.3768L106.303 37.4777L105.236 38.4954L104.122 39.4668L102.963 40.4104L101.749 41.3078L100.481 42.1682L99.1575 42.9546L97.7885 43.7132L96.3374 44.4256L94.8681 45.1102L93.3166 45.7393L91.7104 46.2851L90.0494 46.8402L88.3428 47.3121L86.5905 47.7561L84.747 48.1447L82.8853 48.487L83.0952 46.5997L83.3233 44.7401L83.6336 42.9546L83.9987 41.1968L84.4185 39.5223L84.8748 37.894L85.395 36.3213L85.9426 34.804L86.5632 33.333L87.2568 31.9175L87.9869 30.5483L88.7626 29.2624L89.584 28.0041L90.4692 26.8014L91.4275 25.6728L92.404 24.5996L93.4444 23.5449L94.5578 22.5828L95.7168 21.6576L96.9124 20.7972L98.181 19.9831L99.4951 19.2245L100.864 18.5398L102.288 17.883L103.766 17.2816L105.29 16.7543L106.869 16.2825L108.503 15.8662L110.182 15.4961L111.943 15.1815L113.723 14.9225L115.585 14.7097Z" fill="white"/>
<path fill-rule="evenodd" clip-rule="evenodd" d="M115.585 14.7097L115.43 16.4675L115.202 18.1975L114.919 19.8813L114.581 21.5003L114.189 23.0823L113.75 24.6273L113.258 26.1168L112.719 27.5601L112.099 28.9478L111.423 30.317L110.721 31.6307L109.945 32.8889L109.123 34.0916L108.211 35.2758L107.28 36.3768L106.303 37.4777L105.236 38.4954L104.122 39.4668L102.963 40.4104L101.749 41.3078L100.481 42.1682L99.1575 42.9546L97.7885 43.7132L96.3374 44.4256L94.8681 45.1102L93.3166 45.7393L91.7104 46.2851L90.0494 46.8402L88.3428 47.3121L86.5905 47.7561L84.747 48.1447L82.8853 48.487L83.0952 46.5997L83.3233 44.7401L83.6336 42.9546L83.9987 41.1968L84.4185 39.5223L84.8748 37.894L85.395 36.3213L85.9426 34.804L86.5632 33.333L87.2568 31.9175L87.9869 30.5483L88.7626 29.2624L89.584 28.0041L90.4692 26.8014L91.4275 25.6728L92.404 24.5996L93.4444 23.5449L94.5578 22.5828L95.7168 21.6576L96.9124 20.7972L98.181 19.9831L99.4951 19.2245L100.864 18.5398L102.288 17.883L103.766 17.2816L105.29 16.7543L106.869 16.2825L108.503 15.8662L110.182 15.4961L111.943 15.1815L113.723 14.9225L115.585 14.7097Z" stroke="white" stroke-width="0.03" stroke-miterlimit="10"/>
</g>
<defs>
<clipPath id="clip0_180_639">
<rect width="157" height="245.359" fill="white"/>
</clipPath>
</defs>
</svg>
