<svg width="30" height="54" viewBox="0 0 30 54" fill="none" xmlns="http://www.w3.org/2000/svg">
<path d="M20.7327 24.5988C22.0467 23.7687 23.1324 22.6122 23.888 21.2376C24.6436 19.863 25.0445 18.3153 25.0529 16.7397C25.026 14.4142 24.1596 12.1803 22.6192 10.4647C21.0787 8.74913 18.9722 7.67205 16.7019 7.43923V0.85117C16.7019 0.625426 16.614 0.408927 16.4573 0.249302C16.3007 0.0896766 16.0883 0 15.8668 0C15.6454 0 15.4329 0.0896766 15.2763 0.249302C15.1197 0.408927 15.0317 0.625426 15.0317 0.85117V7.37681H11.1346V0.85117C11.1346 0.625426 11.0466 0.408927 10.89 0.249302C10.7334 0.0896766 10.521 0 10.2995 0C10.078 0 9.86564 0.0896766 9.70903 0.249302C9.55241 0.408927 9.46443 0.625426 9.46443 0.85117V7.37681H0.835097C0.613615 7.37681 0.401206 7.46649 0.244595 7.62611C0.0879836 7.78574 0 8.00223 0 8.22798C0 8.45372 0.0879836 8.67022 0.244595 8.82985C0.401206 8.98947 0.613615 9.07915 0.835097 9.07915H3.34039V44.8283H0.835097C0.613615 44.8283 0.401206 44.918 0.244595 45.0776C0.0879836 45.2372 0 45.4537 0 45.6795C0 45.9052 0.0879836 46.1217 0.244595 46.2813C0.401206 46.441 0.613615 46.5306 0.835097 46.5306H9.46443V52.4888C9.46443 52.7146 9.55241 52.9311 9.70903 53.0907C9.86564 53.2503 10.078 53.34 10.2995 53.34C10.521 53.34 10.7334 53.2503 10.89 53.0907C11.0466 52.9311 11.1346 52.7146 11.1346 52.4888V46.5306H15.0317V52.4888C15.0317 52.7146 15.1197 52.9311 15.2763 53.0907C15.4329 53.2503 15.6454 53.34 15.8668 53.34C16.0883 53.34 16.3007 53.2503 16.4573 53.0907C16.614 52.9311 16.7019 52.7146 16.7019 52.4888V46.5306H18.9289C21.7645 46.4932 24.4699 45.3118 26.4526 43.2453C28.4353 41.1787 29.5335 38.3954 29.5068 35.5051C29.5228 32.9294 28.6543 30.429 27.0519 28.4371C25.4495 26.4453 23.214 25.0875 20.7327 24.5988ZM15.633 9.07915C17.6566 9.05032 19.6088 9.84056 21.0615 11.2766C22.5143 12.7126 23.349 14.6773 23.3827 16.7397C23.349 18.8021 22.5143 20.7667 21.0615 22.2028C19.6088 23.6388 17.6566 24.429 15.633 24.4002H5.01058V9.07915H15.633ZM18.9177 44.8283H4.99945V26.1026H15.633H15.8334H15.9281H18.8565C23.7223 26.1026 27.8366 30.4038 27.8366 35.4881C27.8528 36.6983 27.6349 37.8999 27.1954 39.0243C26.756 40.1487 26.1035 41.1738 25.2753 42.0412C24.4471 42.9085 23.4593 43.6011 22.3685 44.0793C21.2777 44.5575 20.1051 44.812 18.9177 44.8283Z" fill="#197CFF"/>
</svg>
