<svg width="44" height="44" viewBox="0 0 44 44" fill="none" xmlns="http://www.w3.org/2000/svg">
<rect width="44" height="44" rx="22" fill="white"/>
<path d="M31 23.255C28.1405 24.4112 25.0844 25.0038 22 25C18.817 25 15.78 24.38 13 23.255H31ZM26 16V14C26 13.4696 25.7893 12.9609 25.4142 12.5858C25.0391 12.2107 24.5304 12 24 12H20C19.4696 12 18.9609 12.2107 18.5858 12.5858C18.2107 12.9609 18 13.4696 18 14V16H26ZM22 22H22.01H22ZM15 30H29C29.5304 30 30.0391 29.7893 30.4142 29.4142C30.7893 29.0391 31 28.5304 31 28V18C31 17.4696 30.7893 16.9609 30.4142 16.5858C30.0391 16.2107 29.5304 16 29 16H15C14.4696 16 13.9609 16.2107 13.5858 16.5858C13.2107 16.9609 13 17.4696 13 18V28C13 28.5304 13.2107 29.0391 13.5858 29.4142C13.9609 29.7893 14.4696 30 15 30Z" stroke="#efa30e" stroke-width="2" stroke-linecap="round" stroke-linejoin="round"/>
</svg>
