<svg width="39" height="40" viewBox="0 0 39 40" fill="none" xmlns="http://www.w3.org/2000/svg">
<path d="M5.11111 20V34.7778C5.11111 35.8976 5.54424 36.9715 6.31523 37.7633C7.08621 38.5552 8.13189 39 9.22222 39H29.7778C30.8681 39 31.9138 38.5552 32.6848 37.7633C33.4558 36.9715 33.8889 35.8976 33.8889 34.7778V20M19.5 11.5556V39V11.5556ZM19.5 11.5556V7.33334C19.5 6.49826 19.7411 5.68194 20.1928 4.98759C20.6446 4.29325 21.2866 3.75208 22.0379 3.43251C22.7891 3.11294 23.6157 3.02933 24.4131 3.19224C25.2106 3.35516 25.9432 3.75728 26.5181 4.34777C27.0931 4.93826 27.4846 5.69059 27.6432 6.50962C27.8019 7.32865 27.7204 8.1776 27.4093 8.94911C27.0981 9.72062 26.5712 10.38 25.8951 10.844C25.2191 11.3079 24.4242 11.5556 23.6111 11.5556H19.5ZM19.5 11.5556V6.27778C19.5 5.23393 19.1986 4.21353 18.6339 3.3456C18.0693 2.47768 17.2667 1.80121 16.3277 1.40175C15.3887 1.00229 14.3554 0.897769 13.3586 1.10141C12.3617 1.30506 11.4461 1.80772 10.7274 2.54583C10.0087 3.28394 9.51925 4.22435 9.32096 5.24814C9.12268 6.27193 9.22445 7.33311 9.6134 8.2975C10.0023 9.26188 10.661 10.0862 11.5061 10.6661C12.3512 11.246 13.3447 11.5556 14.3611 11.5556H19.5ZM5.11111 20H33.8889H5.11111ZM5.11111 20C4.02078 20 2.9751 19.5552 2.20412 18.7633C1.43313 17.9715 1 16.8976 1 15.7778C1 14.658 1.43313 13.584 2.20412 12.7922C2.9751 12.0004 4.02078 11.5556 5.11111 11.5556H33.8889C34.9792 11.5556 36.0249 12.0004 36.7959 12.7922C37.5669 13.584 38 14.658 38 15.7778C38 16.8976 37.5669 17.9715 36.7959 18.7633C36.0249 19.5552 34.9792 20 33.8889 20H5.11111Z" stroke="#197CFF" stroke-width="2" stroke-linecap="round" stroke-linejoin="round"/>
</svg>
