<svg width="28" height="28" viewBox="0 0 28 28" fill="none" xmlns="http://www.w3.org/2000/svg">
<g clip-path="url(#clip0_191_477)">
<path d="M21.4234 4.99379C21.0975 4.99223 20.7784 5.08744 20.5067 5.26736C20.235 5.44729 20.0228 5.70383 19.897 6.00448C19.7712 6.30512 19.7374 6.63635 19.8 6.95619C19.8626 7.27603 20.0188 7.57008 20.2487 7.80108C20.4786 8.03209 20.7719 8.18966 21.0914 8.25382C21.4109 8.31798 21.7423 8.28584 22.0436 8.16149C22.3448 8.03713 22.6024 7.82615 22.7836 7.55528C22.9649 7.2844 23.0616 6.96583 23.0616 6.63992C23.0627 6.42412 23.021 6.21025 22.9392 6.01057C22.8573 5.8109 22.7368 5.62937 22.5846 5.47641C22.4324 5.32345 22.2514 5.20207 22.0522 5.11925C21.8529 5.03643 21.6392 4.99379 21.4234 4.99379Z" fill="white"/>
<path d="M14.1187 7.10682C12.7532 7.10525 11.4178 7.50887 10.2817 8.26656C9.14565 9.02426 8.25987 10.102 7.73656 11.3633C7.21326 12.6246 7.07594 14.0129 7.34197 15.3523C7.608 16.6917 8.26542 17.9221 9.23103 18.8877C10.1966 19.8533 11.427 20.5107 12.7664 20.7767C14.1058 21.0428 15.4941 20.9054 16.7554 20.3821C18.0167 19.8588 19.0944 18.9731 19.8521 17.837C20.6098 16.7009 21.0134 15.3656 21.0119 14C21.0077 12.1731 20.2801 10.4222 18.9883 9.13039C17.6965 7.83858 15.9456 7.111 14.1187 7.10682ZM14.1187 18.4239C13.2434 18.4255 12.3873 18.1674 11.6587 17.6822C10.9302 17.1971 10.3619 16.5067 10.0259 15.6984C9.68982 14.8902 9.60107 14.0005 9.77087 13.1418C9.94068 12.2831 10.3614 11.4941 10.9798 10.8746C11.5982 10.2551 12.3864 9.83294 13.2448 9.6616C14.1032 9.49026 14.9931 9.57741 15.802 9.91202C16.6108 10.2466 17.3022 10.8136 17.7887 11.5413C18.2751 12.269 18.5348 13.1247 18.5348 14C18.5379 14.5823 18.426 15.1595 18.2056 15.6984C17.9852 16.2374 17.6605 16.7275 17.2503 17.1407C16.84 17.554 16.3522 17.8821 15.8148 18.1064C15.2774 18.3307 14.701 18.4467 14.1187 18.4477V18.4239Z" fill="white"/>
<path d="M19.5953 28.0079H8.41267C6.18213 28.0058 4.04356 27.1188 2.46634 25.5416C0.889112 23.9644 0.00209538 21.8258 0 19.5952V8.41267C0.00209538 6.18213 0.889112 4.04355 2.46634 2.46633C4.04356 0.8891 6.18213 0.00209538 8.41267 0H19.5953C21.8244 0.00418918 23.961 0.892116 25.5365 2.46912C27.112 4.04611 27.9979 6.1835 28 8.41267V19.5952C27.9979 21.8244 27.112 23.9618 25.5365 25.5388C23.961 27.1158 21.8244 28.0037 19.5953 28.0079ZM8.41267 2.61956C6.88108 2.62165 5.41284 3.23099 4.32985 4.31399C3.24685 5.39699 2.63749 6.86525 2.6354 8.39684V19.5794C2.63749 21.111 3.24685 22.5793 4.32985 23.6623C5.41284 24.7453 6.88108 25.3546 8.41267 25.3567H19.5953C21.1262 25.3525 22.5933 24.7425 23.6758 23.66C24.7584 22.5774 25.3683 21.1104 25.3725 19.5794V8.41267C25.3683 6.88172 24.7584 5.41467 23.6758 4.33213C22.5933 3.24958 21.1262 2.63957 19.5953 2.63539L8.41267 2.61956Z" fill="white"/>
</g>
<defs>
<clipPath id="clip0_191_477">
<rect width="28" height="28" fill="white"/>
</clipPath>
</defs>
</svg>
