<svg width="54" height="54" viewBox="0 0 54 54" fill="none" xmlns="http://www.w3.org/2000/svg">
<path d="M18.846 31.2518V27.2344C21.8061 26.8865 24.0927 24.7704 24.0927 22.2121C24.0927 19.6561 21.8061 17.5411 18.846 17.1932V10.4576C20.8637 10.7628 22.3907 12.1304 22.3907 13.7674C22.3907 14.2378 22.7714 14.6185 23.2417 14.6185C23.712 14.6185 24.0927 14.2378 24.0927 13.7674C24.0927 11.2091 21.8055 9.09237 18.846 8.74622V4.72773C18.846 4.25741 18.4653 3.87671 17.995 3.87671C17.5247 3.87671 17.1439 4.25741 17.1439 4.72773V8.74681C14.1815 9.09296 11.892 11.2097 11.892 13.7686C11.892 16.3246 14.1815 18.439 17.1439 18.7851V25.5248C15.1239 25.2208 13.594 23.852 13.594 22.2127C13.594 21.7423 13.2133 21.3616 12.743 21.3616C12.2727 21.3616 11.892 21.7423 11.892 22.2127C11.892 24.7733 14.1815 26.8912 17.1439 27.2362V31.2524C17.1439 31.7227 17.5247 32.1034 17.995 32.1034C18.4653 32.1034 18.846 31.7221 18.846 31.2518ZM22.3907 22.2121C22.3907 23.8491 20.8643 25.2167 18.846 25.523V18.9046C20.8643 19.2109 22.3907 20.5768 22.3907 22.2121ZM13.594 13.768C13.594 12.1304 15.1233 10.7628 17.1439 10.4582V17.0731C15.1233 16.7686 13.594 15.4033 13.594 13.768Z" fill="#197CFF"/>
<path d="M35.9805 17.9886C35.9805 8.0692 27.9101 0 17.9901 0C8.07012 0 -0.000244141 8.0692 -0.000244141 17.9886C-0.000244141 27.908 8.07012 35.9784 17.9901 35.9784C27.9101 35.9784 35.9805 27.908 35.9805 17.9886ZM1.7018 17.9886C1.7018 9.00808 9.00842 1.70205 17.9901 1.70205C26.9719 1.70205 34.2785 9.00808 34.2785 17.9886C34.2785 26.9698 26.9719 34.2764 17.9901 34.2764C9.00842 34.2764 1.7018 26.9703 1.7018 17.9886Z" fill="#197CFF"/>
<path d="M53.7623 34.4022L51.9765 27.4458C51.8605 26.9919 51.3955 26.7184 50.9433 26.8326L44.035 28.5821C43.5793 28.6969 43.3034 29.1602 43.4188 29.6158C43.5336 30.0715 43.9986 30.3468 44.4526 30.232L49.3918 28.9815L40.4089 42.9587L34.611 34.5064C34.4453 34.2651 34.1788 34.1439 33.8719 34.1374C33.5784 34.1503 33.3125 34.3137 33.1679 34.5691L25.3728 48.37L17.1367 42.3437C16.7852 42.0866 16.2944 42.1363 16.0016 42.4614L7.43863 51.9814C7.12411 52.3311 7.15281 52.8693 7.50247 53.1832C7.6653 53.3297 7.86854 53.4017 8.07119 53.4017C8.3043 53.4017 8.53624 53.3068 8.70433 53.12L16.7524 44.1722L25.1403 50.3098C25.3365 50.4533 25.586 50.5072 25.822 50.4545C26.0598 50.4035 26.2642 50.253 26.3837 50.0416L33.9791 36.5962L39.7301 44.9793C39.8911 45.2142 40.1547 45.3542 40.4446 45.3489C40.7299 45.3442 40.994 45.1978 41.148 44.9577L50.8426 29.8735L52.1141 34.8262C52.2125 35.2104 52.5587 35.4658 52.9376 35.4658C53.0073 35.4658 53.0788 35.457 53.1496 35.4389C53.6047 35.3211 53.8794 34.8573 53.7623 34.4022Z" fill="#197CFF"/>
</svg>
