<svg width="58" height="64" viewBox="0 0 58 64" fill="none" xmlns="http://www.w3.org/2000/svg">
<g clip-path="url(#clip0_180_694)">
<path d="M30.1132 0C31.3701 0.377262 32.6735 0.644946 33.8714 1.16153C35.4975 1.86127 36.7621 3.07445 37.6931 4.60542C37.96 5.04217 38.2083 5.16896 38.7312 5.05782C41.1218 4.52985 43.621 4.8879 45.7714 6.06647C47.9218 7.24504 49.5796 9.16532 50.4417 11.476C50.572 11.8219 50.7629 11.8736 51.0779 11.8971C54.2774 12.1288 56.7291 14.5583 56.9199 17.6969C56.972 18.7414 56.7488 19.7812 56.2729 20.7103C56.2217 20.8317 56.1972 20.9628 56.201 21.0947C56.2047 21.2265 56.2366 21.356 56.2946 21.4742C59.9286 27.2459 57.5359 34.5469 51.1911 36.9717C50.856 37.1001 50.6263 37.1924 50.6915 37.648C51.0592 40.2011 50.3036 42.4303 48.6309 44.3338C46.4275 46.8385 43.6407 48.0908 40.3155 48.0814C40.1295 48.0801 39.9439 48.0654 39.76 48.0376C39.1595 47.9468 38.8289 47.5805 38.8646 47.0451C38.9003 46.5097 39.2758 46.2154 39.8856 46.1779C40.7266 46.1278 41.5925 46.1779 42.4025 45.9728C45.3336 45.2418 47.5602 43.6028 48.6293 40.6504C49.0073 39.5606 49.0463 38.3803 48.741 37.2676C48.4524 36.0951 48.6324 35.8337 49.7946 35.4768C55.8275 33.6218 58.0976 26.7215 54.2945 21.947C53.8926 21.4413 53.829 20.9686 54.2215 20.4223C55.2224 19.0291 55.3651 17.5372 54.5319 16.0266C53.6707 14.4346 52.2416 13.7583 50.482 13.7756C49.2717 13.7881 49.1833 13.7521 48.8465 12.5702C47.9404 9.39712 44.8758 6.9457 41.608 6.74689C40.4541 6.6487 39.2922 6.77139 38.1835 7.1085C37.3223 7.38871 37.0197 7.26504 36.5945 6.41503C35.5813 4.40035 33.997 3.07602 31.8945 2.32932C27.7578 0.859408 23.1027 3.02593 21.5511 7.16642C21.0856 8.39057 20.8978 8.47823 19.596 8.16515C15.1442 7.09128 10.7142 8.9322 8.59925 12.7784C8.23221 13.4741 7.94386 14.2093 7.73962 14.97C7.55032 15.6274 7.20274 15.9311 6.53397 16.0016C4.62696 16.2066 3.20253 17.3572 2.74323 19.0948C2.34445 20.6054 2.73392 21.9313 3.8294 23.0412C3.94578 23.1602 4.07457 23.265 4.1956 23.3793C4.91402 24.0618 4.90782 24.5142 4.17698 25.2014C1.05036 28.1444 1.05191 32.4743 4.1987 35.3515C5.12504 36.1937 6.2668 36.7572 7.49446 36.978C8.20978 37.1142 8.53408 37.5008 8.65511 38.2178C9.37508 42.5305 12.6895 45.6597 16.9752 46.1293C17.1186 46.146 17.2611 46.1705 17.4019 46.2029C17.9388 46.3219 18.2398 46.6522 18.2026 47.2173C18.1966 47.3444 18.163 47.4686 18.104 47.5811C18.0451 47.6935 17.9623 47.7915 17.8616 47.868C17.7608 47.9446 17.6446 47.9977 17.5212 48.0238C17.3977 48.0499 17.2701 48.0481 17.1474 48.0188C15.8642 47.748 14.5266 47.5492 13.3412 47.0216C9.94765 45.511 7.77221 42.8968 6.91103 39.2118C6.866 39.0868 6.7947 38.9732 6.70203 38.8786C6.60936 38.784 6.49751 38.7108 6.37415 38.6639C2.28549 37.3866 -0.20805 33.8894 0.0122871 29.6362C0.106939 27.8125 0.808295 26.2096 1.96119 24.8054L2.27152 24.4313C1.81688 23.492 1.2769 22.6702 0.991393 21.7607C0.00763172 18.6299 1.98912 15.1562 5.16384 14.3829C5.7721 14.2264 6.07002 13.9712 6.2857 13.3686C7.89324 8.88837 12.4924 5.81704 17.3026 5.98454C18.0023 6.01561 18.6994 6.09142 19.3896 6.21152C19.7418 6.27101 19.9094 6.18335 20.0568 5.86401C21.5309 2.68467 24.0477 0.8688 27.4133 0.172195C27.7329 0.106448 28.0557 0.0563546 28.3784 0H30.1132Z" fill="#efa30e"/>
<path d="M25.1464 42.6041C25.4568 40.3374 25.7671 38.2397 26.0216 36.1342C26.2062 34.6487 26.8269 33.5106 28.2994 33.0347C30.2763 32.3992 32.1274 33.8174 32.3338 36.0513C32.489 37.6449 32.669 39.2353 32.8474 40.9275C33.0895 40.76 33.271 40.6395 33.4494 40.5111C35.4371 39.0835 37.4093 37.6433 39.3955 36.2313C40.9052 35.1621 42.7254 35.5582 43.464 37.0829C43.699 37.5503 43.7885 38.0784 43.7207 38.5981C43.6528 39.1177 43.4308 39.6045 43.0838 39.9945C42.9045 40.1955 42.7127 40.3848 42.5097 40.5612C39.6774 43.0836 36.8419 45.6023 34.0034 48.1174C33.8539 48.238 33.735 48.3928 33.6565 48.5689C33.578 48.745 33.5421 48.9374 33.5519 49.1302C33.5208 53.6167 34.531 57.8714 36.303 61.9665C36.4023 62.1951 36.5218 62.4158 36.6133 62.6491C36.8755 63.3676 36.4923 63.9577 35.7273 63.9906C35.1501 64.0141 34.5713 63.9906 33.9941 63.9906H22.1719C20.8824 63.9906 20.5333 63.485 20.9662 62.2687C22.0695 59.1504 22.9586 55.9742 23.3729 52.6759C23.4566 52.0569 23.5001 51.433 23.5032 50.8083C23.4748 50.5457 23.3744 50.2963 23.213 50.0883C20.9673 46.7967 18.7147 43.5089 16.4555 40.2246C15.4842 38.8033 15.5959 37.3224 16.741 36.2861C17.7993 35.3202 19.5247 35.3296 20.4852 36.4035C21.2409 37.2504 21.8802 38.2006 22.5629 39.1148C23.3946 40.2246 24.2123 41.3517 25.1464 42.6041ZM34.3013 62.0871C34.1865 61.774 34.0918 61.5063 33.991 61.2386C32.3946 57.2071 31.6178 52.893 31.7069 48.5526C31.699 48.2649 31.7567 47.9791 31.8756 47.7175C31.9945 47.4558 32.1715 47.2253 32.3928 47.0435C35.3409 44.4434 38.2891 41.8198 41.228 39.2024C41.3858 39.0685 41.5345 38.9242 41.6733 38.7704C41.9542 38.4385 41.9976 38.0252 41.6625 37.7732C41.4344 37.601 41.0418 37.6073 40.7315 37.6167C40.5763 37.6167 40.4211 37.8045 40.266 37.9141C37.8464 39.6559 35.4278 41.3982 33.0103 43.141C32.6193 43.4228 32.2345 43.7343 31.7147 43.4869C31.1949 43.2396 31.1716 42.7606 31.1142 42.2722C30.9011 40.2236 30.6869 38.1745 30.4718 36.1248C30.3833 35.2967 29.8759 34.777 29.1948 34.777C28.543 34.777 28.0388 35.2654 27.9177 36.0701C27.7626 37.0782 27.6477 38.091 27.5096 39.1007C27.2396 41.0835 26.9681 43.0622 26.695 45.0367C26.6329 45.4907 26.4188 45.8992 25.9564 45.8992C25.6181 45.8992 25.2706 45.6535 24.9447 45.4813C24.8299 45.4202 24.7663 45.2574 24.6809 45.1416C22.9927 42.8477 21.304 40.557 19.6147 38.2695C19.4595 38.055 19.3044 37.7529 19.0809 37.6871C18.7458 37.5869 18.2523 37.5149 18.0274 37.6871C17.8024 37.8593 17.7636 38.3602 17.7512 38.7203C17.7434 38.9097 17.9606 39.1116 18.0894 39.2995C20.3657 42.6213 22.6358 45.9478 24.9308 49.2555C25.2702 49.7266 25.432 50.3044 25.3869 50.885C25.2427 53.4422 24.8133 55.9748 24.1068 58.435C23.7654 59.6513 23.4132 60.8582 23.0532 62.0933L34.3013 62.0871Z" fill="#efa30e"/>
</g>
<defs>
<clipPath id="clip0_180_694">
<rect width="58" height="64" fill="white"/>
</clipPath>
</defs>
</svg>
