<svg width="32" height="52" viewBox="0 0 32 52" fill="none" xmlns="http://www.w3.org/2000/svg">
<path d="M20.1637 37.4831L28.7104 23.7174C28.7388 23.6719 28.7629 23.6238 28.7822 23.5738C30.2573 21.1556 31.0415 18.3795 31.0499 15.547C31.0583 12.7145 30.2903 9.9339 28.8296 7.50711C27.3688 5.08032 25.271 3.10017 22.7641 1.78171C20.2572 0.463244 17.4369 -0.143118 14.6096 0.0284752C10.9533 0.27149 7.499 1.79259 4.85113 4.32557C2.20327 6.85854 0.530538 10.242 0.125686 13.8839C-0.236951 17.2791 0.539993 20.6985 2.33418 23.6037C2.35288 23.6472 2.37489 23.6892 2.40001 23.7294L10.5936 37.4412C4.01 38.2731 0 40.8287 0 44.2223C0 48.2442 6.82298 51.4043 15.5612 51.4043C24.2994 51.4043 31.1224 48.2502 31.1224 44.2223C31.0685 40.9245 26.8191 38.327 20.1637 37.4831ZM3.94416 22.7897C2.30376 20.195 1.58874 17.1218 1.91522 14.0695C2.27326 10.8506 3.75185 7.86026 6.09224 5.62162C8.43263 3.38298 11.4858 2.03869 14.7173 1.824C17.2306 1.66969 19.7379 2.21107 21.9636 3.38865C24.1893 4.56623 26.0475 6.33447 27.3339 8.49912C28.6203 10.6638 29.2853 13.1411 29.2557 15.659C29.2261 18.1769 28.5032 20.6379 27.1662 22.7718C27.138 22.8173 27.1139 22.8654 27.0944 22.9154L15.3218 41.8582L4.02795 22.9693C4.00707 22.9064 3.97895 22.8461 3.94416 22.7897ZM15.5313 49.6028C7.43346 49.6028 1.7656 46.7659 1.7656 44.2163C1.7656 41.8222 5.79355 39.7095 11.5691 39.123L14.5078 44.0367C14.5866 44.1684 14.6978 44.2778 14.8309 44.3543C14.964 44.4308 15.1144 44.4719 15.2679 44.4736C15.4222 44.4775 15.5748 44.4415 15.7111 44.3691C15.8474 44.2968 15.9627 44.1905 16.046 44.0607L19.0864 39.1768C24.9996 39.7753 29.261 41.8701 29.261 44.2282C29.273 46.7659 23.6291 49.6028 15.5313 49.6028Z" fill="#efa30e"/>
<path d="M21.4746 15.2247C21.4746 14.1049 21.1425 13.0102 20.5204 12.0791C19.8982 11.148 19.014 10.4223 17.9794 9.99379C16.9448 9.56526 15.8064 9.45313 14.7081 9.6716C13.6098 9.89006 12.601 10.4293 11.8091 11.2211C11.0173 12.013 10.4781 13.0218 10.2596 14.1201C10.0411 15.2184 10.1533 16.3568 10.5818 17.3914C11.0103 18.426 11.736 19.3102 12.6671 19.9324C13.5982 20.5545 14.6929 20.8866 15.8127 20.8866C17.3138 20.885 18.753 20.288 19.8145 19.2265C20.876 18.165 21.473 16.7258 21.4746 15.2247ZM11.9463 15.2247C11.9463 14.46 12.1731 13.7125 12.5979 13.0767C13.0228 12.4408 13.6266 11.9453 14.3331 11.6526C15.0396 11.36 15.817 11.2834 16.567 11.4326C17.317 11.5818 18.0059 11.95 18.5466 12.4908C19.0873 13.0315 19.4556 13.7204 19.6048 14.4704C19.754 15.2204 19.6774 15.9978 19.3847 16.7043C19.0921 17.4108 18.5966 18.0146 17.9607 18.4394C17.3249 18.8643 16.5774 19.091 15.8127 19.091C14.7888 19.0879 13.8078 18.6793 13.0844 17.9548C12.3609 17.2302 11.9539 16.2486 11.9523 15.2247H11.9463Z" fill="#efa30e"/>
</svg>
