<svg width="44" height="44" viewBox="0 0 44 44" fill="none" xmlns="http://www.w3.org/2000/svg">
<rect width="44" height="44" rx="22" fill="white"/>
<path d="M27.657 26.657L23.414 30.9C23.2284 31.0858 23.0081 31.2331 22.7656 31.3336C22.523 31.4342 22.2631 31.4859 22.0005 31.4859C21.738 31.4859 21.478 31.4342 21.2354 31.3336C20.9929 31.2331 20.7726 31.0858 20.587 30.9L16.343 26.657C15.2242 25.5382 14.4623 24.1127 14.1537 22.5609C13.845 21.009 14.0035 19.4005 14.609 17.9387C15.2145 16.477 16.2399 15.2276 17.5555 14.3485C18.8711 13.4695 20.4178 13.0003 22 13.0003C23.5822 13.0003 25.1289 13.4695 26.4445 14.3485C27.7601 15.2276 28.7855 16.477 29.391 17.9387C29.9965 19.4005 30.155 21.009 29.8463 22.5609C29.5377 24.1127 28.7758 25.5382 27.657 26.657V26.657Z" stroke="#197CFF" stroke-width="2" stroke-linecap="round" stroke-linejoin="round"/>
<path d="M25 21C25 21.7956 24.6839 22.5587 24.1213 23.1213C23.5587 23.6839 22.7956 24 22 24C21.2044 24 20.4413 23.6839 19.8787 23.1213C19.3161 22.5587 19 21.7956 19 21C19 20.2044 19.3161 19.4413 19.8787 18.8787C20.4413 18.3161 21.2044 18 22 18C22.7956 18 23.5587 18.3161 24.1213 18.8787C24.6839 19.4413 25 20.2044 25 21V21Z" stroke="#197CFF" stroke-width="2" stroke-linecap="round" stroke-linejoin="round"/>
</svg>
