<svg width="44" height="44" viewBox="0 0 44 44" fill="none" xmlns="http://www.w3.org/2000/svg">
<rect width="44" height="44" rx="22" fill="white"/>
<path d="M22 18C20.343 18 19 18.895 19 20C19 21.105 20.343 22 22 22C23.657 22 25 22.895 25 24C25 25.105 23.657 26 22 26V18ZM22 18C23.11 18 24.08 18.402 24.599 19L22 18ZM22 18V17V18ZM22 18V26V18ZM22 26V27V26ZM22 26C20.89 26 19.92 25.598 19.401 25L22 26ZM31 22C31 23.1819 30.7672 24.3522 30.3149 25.4442C29.8626 26.5361 29.1997 27.5282 28.364 28.364C27.5282 29.1997 26.5361 29.8626 25.4442 30.3149C24.3522 30.7672 23.1819 31 22 31C20.8181 31 19.6478 30.7672 18.5558 30.3149C17.4639 29.8626 16.4718 29.1997 15.636 28.364C14.8003 27.5282 14.1374 26.5361 13.6851 25.4442C13.2328 24.3522 13 23.1819 13 22C13 19.6131 13.9482 17.3239 15.636 15.636C17.3239 13.9482 19.6131 13 22 13C24.3869 13 26.6761 13.9482 28.364 15.636C30.0518 17.3239 31 19.6131 31 22Z" stroke="#efa30e" stroke-width="2" stroke-linecap="round" stroke-linejoin="round"/>
</svg>
