<svg width="59" height="56" viewBox="0 0 59 56" fill="none" xmlns="http://www.w3.org/2000/svg">
<path d="M53.9377 26.4504H44.3565C43.4337 26.4504 42.5486 26.817 41.896 27.4695C41.2435 28.1221 40.8769 29.0071 40.8769 29.93V39.5112C40.8769 40.434 41.2435 41.3191 41.896 41.9716C42.5486 42.6242 43.4337 42.9908 44.3565 42.9908H53.9377C54.8605 42.9908 55.7456 42.6242 56.3981 41.9716C57.0507 41.3191 57.4173 40.434 57.4173 39.5112V29.93C57.4173 29.0071 57.0507 28.1221 56.3981 27.4695C55.7456 26.817 54.8605 26.4504 53.9377 26.4504ZM55.5795 39.5112C55.5795 39.7268 55.537 39.9403 55.4545 40.1394C55.372 40.3386 55.2511 40.5196 55.0986 40.6721C54.9461 40.8245 54.7652 40.9455 54.566 41.028C54.3668 41.1105 54.1533 41.153 53.9377 41.153H44.3565C44.1409 41.153 43.9274 41.1105 43.7282 41.028C43.529 40.9455 43.348 40.8245 43.1956 40.6721C43.0431 40.5196 42.9222 40.3386 42.8397 40.1394C42.7572 39.9403 42.7147 39.7268 42.7147 39.5112V29.93C42.7147 29.4946 42.8877 29.077 43.1956 28.7691C43.5035 28.4612 43.9211 28.2882 44.3565 28.2882H53.9377C54.3731 28.2882 54.7907 28.4612 55.0986 28.7691C55.4065 29.077 55.5795 29.4946 55.5795 29.93V39.5112Z" fill="#197CFF"/>
<path d="M49.1471 30.7386C48.3595 30.7386 47.5897 30.9722 46.9348 31.4097C46.28 31.8473 45.7696 32.4692 45.4682 33.1968C45.1669 33.9244 45.088 34.725 45.2416 35.4974C45.3953 36.2699 45.7745 36.9794 46.3314 37.5363C46.8883 38.0931 47.5978 38.4724 48.3702 38.626C49.1427 38.7797 49.9433 38.7008 50.6709 38.3994C51.3985 38.0981 52.0204 37.5877 52.458 36.9328C52.8955 36.278 53.129 35.5081 53.129 34.7206C53.1274 33.665 52.7074 32.6531 51.961 31.9067C51.2145 31.1603 50.2027 30.7403 49.1471 30.7386ZM49.1471 36.8647C48.723 36.8647 48.3085 36.739 47.9559 36.5034C47.6033 36.2678 47.3284 35.9329 47.1662 35.5411C47.0039 35.1493 46.9614 34.7182 47.0442 34.3023C47.1269 33.8864 47.3311 33.5043 47.631 33.2045C47.9308 32.9046 48.3129 32.7004 48.7288 32.6177C49.1447 32.5349 49.5758 32.5774 49.9676 32.7397C50.3594 32.902 50.6943 33.1768 50.9299 33.5294C51.1655 33.882 51.2912 34.2965 51.2912 34.7206C51.2912 35.2893 51.0653 35.8346 50.6632 36.2367C50.2611 36.6388 49.7157 36.8647 49.1471 36.8647Z" fill="#197CFF"/>
<path d="M11.8883 19.0991H21.4695C22.3923 19.0991 23.2774 18.7325 23.9299 18.08C24.5825 17.4274 24.9491 16.5424 24.9491 15.6195V6.03833C24.9491 5.11548 24.5825 4.23042 23.9299 3.57787C23.2774 2.92532 22.3923 2.55872 21.4695 2.55872H11.8883C10.9655 2.55872 10.0804 2.92532 9.42785 3.57787C8.77529 4.23042 8.40869 5.11548 8.40869 6.03833V15.6195C8.40869 16.5424 8.77529 17.4274 9.42785 18.08C10.0804 18.7325 10.9655 19.0991 11.8883 19.0991ZM10.2465 6.03833C10.2465 5.6029 10.4195 5.1853 10.7274 4.87741C11.0353 4.56951 11.4529 4.39654 11.8883 4.39654H21.4695C21.9049 4.39654 22.3225 4.56951 22.6304 4.87741C22.9383 5.1853 23.1113 5.6029 23.1113 6.03833V15.6195C23.1113 16.0549 22.9383 16.4725 22.6304 16.7804C22.3225 17.0883 21.9049 17.2613 21.4695 17.2613H11.8883C11.4529 17.2613 11.0353 17.0883 10.7274 16.7804C10.4195 16.4725 10.2465 16.0549 10.2465 15.6195V6.03833Z" fill="#197CFF"/>
<path d="M16.6789 14.8109C17.4664 14.8109 18.2363 14.5773 18.8911 14.1398C19.546 13.7023 20.0563 13.0804 20.3577 12.3528C20.6591 11.6252 20.738 10.8245 20.5843 10.0521C20.4307 9.27967 20.0514 8.57016 19.4946 8.01327C18.9377 7.45639 18.2282 7.07714 17.4557 6.9235C16.6833 6.76985 15.8827 6.84871 15.1551 7.15009C14.4275 7.45148 13.8056 7.96186 13.368 8.61668C12.9305 9.27151 12.6969 10.0414 12.6969 10.8289C12.6986 11.8845 13.1186 12.8964 13.865 13.6428C14.6114 14.3892 15.6233 14.8093 16.6789 14.8109ZM16.6789 8.68481C17.103 8.68481 17.5175 8.81056 17.8701 9.04616C18.2227 9.28176 18.4975 9.61663 18.6598 10.0084C18.8221 10.4002 18.8646 10.8313 18.7818 11.2472C18.6991 11.6632 18.4949 12.0452 18.195 12.3451C17.8952 12.6449 17.5131 12.8491 17.0972 12.9319C16.6813 13.0146 16.2502 12.9721 15.8584 12.8098C15.4666 12.6476 15.1317 12.3727 14.8961 12.0201C14.6605 11.6675 14.5348 11.253 14.5348 10.8289C14.5348 10.2603 14.7607 9.71491 15.1628 9.31281C15.5649 8.91071 16.1102 8.68481 16.6789 8.68481Z" fill="#197CFF"/>
<path d="M24.9491 41.349V31.7678C24.9491 30.845 24.5825 29.9599 23.9299 29.3074C23.2774 28.6548 22.3923 28.2882 21.4695 28.2882H11.8883C10.9655 28.2882 10.0804 28.6548 9.42785 29.3074C8.77529 29.9599 8.40869 30.845 8.40869 31.7678V41.349C8.40869 42.2718 8.77529 43.1569 9.42785 43.8095C10.0804 44.462 10.9655 44.8286 11.8883 44.8286H21.4695C22.3923 44.8286 23.2774 44.462 23.9299 43.8095C24.5825 43.1569 24.9491 42.2718 24.9491 41.349ZM23.1113 41.349C23.1113 41.7844 22.9383 42.202 22.6304 42.5099C22.3225 42.8178 21.9049 42.9908 21.4695 42.9908H11.8883C11.4529 42.9908 11.0353 42.8178 10.7274 42.5099C10.4195 42.202 10.2465 41.7844 10.2465 41.349V31.7678C10.2465 31.3324 10.4195 30.9148 10.7274 30.6069C11.0353 30.299 11.4529 30.126 11.8883 30.126H21.4695C21.9049 30.126 22.3225 30.299 22.6304 30.6069C22.9383 30.9148 23.1113 31.3324 23.1113 31.7678V41.349Z" fill="#197CFF"/>
<path d="M16.6789 32.5765C15.8913 32.5765 15.1215 32.81 14.4666 33.2476C13.8118 33.6851 13.3014 34.307 13.0001 35.0346C12.6987 35.7622 12.6198 36.5628 12.7735 37.3353C12.9271 38.1077 13.3063 38.8172 13.8632 39.3741C14.4201 39.931 15.1296 40.3102 15.9021 40.4639C16.6745 40.6175 17.4751 40.5386 18.2027 40.2373C18.9303 39.9359 19.5522 39.4255 19.9898 38.7707C20.4273 38.1158 20.6608 37.346 20.6608 36.5584C20.6592 35.5028 20.2392 34.491 19.4928 33.7446C18.7464 32.9981 17.7345 32.5781 16.6789 32.5765ZM16.6789 38.7025C16.2548 38.7025 15.8403 38.5768 15.4877 38.3412C15.1351 38.1056 14.8603 37.7707 14.698 37.3789C14.5357 36.9872 14.4932 36.556 14.576 36.1401C14.6587 35.7242 14.8629 35.3422 15.1628 35.0423C15.4626 34.7424 15.8447 34.5382 16.2606 34.4555C16.6765 34.3728 17.1076 34.4152 17.4994 34.5775C17.8912 34.7398 18.2261 35.0146 18.4617 35.3672C18.6973 35.7198 18.823 36.1344 18.823 36.5584C18.823 37.1271 18.5971 37.6725 18.195 38.0746C17.7929 38.4767 17.2476 38.7025 16.6789 38.7025Z" fill="#197CFF"/>
<path d="M58.1403 12.973C58.0694 12.7441 57.9119 12.5519 57.7013 12.4374C57.4907 12.323 57.2438 12.2954 57.0131 12.3604L40.2215 16.9304L47.242 1.29671C47.2915 1.1865 47.3188 1.06762 47.3223 0.946856C47.3258 0.826098 47.3055 0.705826 47.2626 0.592907C47.2196 0.479989 47.1549 0.376636 47.072 0.288748C46.9891 0.200861 46.8897 0.130161 46.7795 0.080685C46.6693 0.031209 46.5504 0.00392584 46.4296 0.000393367C46.3089 -0.0031391 46.1886 0.0171485 46.0757 0.0600974C45.9628 0.103046 45.8594 0.167815 45.7715 0.250707C45.6836 0.333598 45.6129 0.432989 45.5635 0.543204L37.9242 17.5614L0.683841 27.7736C0.467256 27.8309 0.279071 27.9654 0.154672 28.1517C0.0302731 28.338 -0.0217679 28.5634 0.00833493 28.7854C0.0384377 29.0074 0.14861 29.2108 0.318135 29.3572C0.48766 29.5037 0.704858 29.5832 0.928884 29.5808C1.01158 29.5819 1.09404 29.5716 1.17393 29.5502L36.9502 19.7117L21.635 53.8033C21.5855 53.9135 21.5583 54.0324 21.5547 54.1531C21.5512 54.2739 21.5715 54.3942 21.6144 54.5071C21.6574 54.62 21.7221 54.7234 21.805 54.8112C21.8879 54.8991 21.9873 54.9698 22.0975 55.0193C22.2077 55.0688 22.3266 55.0961 22.4474 55.0996C22.5681 55.1031 22.6884 55.0828 22.8013 55.0399C22.9143 54.9969 23.0176 54.9322 23.1055 54.8493C23.1934 54.7664 23.2641 54.667 23.3136 54.5568L39.2475 19.0991L57.497 14.0941C57.7303 14.0296 57.9286 13.8756 58.0491 13.6657C58.1695 13.4558 58.2023 13.2069 58.1403 12.973Z" fill="#197CFF"/>
</svg>
