<svg width="53" height="54" viewBox="0 0 53 54" fill="none" xmlns="http://www.w3.org/2000/svg">
<path d="M47.0476 24.961C47.0664 24.7699 47.0279 24.5775 46.9371 24.4082L39.783 10.9196C39.7 10.7622 39.5755 10.6306 39.4231 10.5389C39.2706 10.4472 39.096 10.3989 38.918 10.3993H12.9033C12.718 10.3989 12.5364 10.4513 12.3797 10.5503C12.2231 10.6494 12.0979 10.791 12.0188 10.9586L5.59967 24.4472C5.51904 24.6173 5.48966 24.8071 5.51512 24.9936C3.93156 25.4324 2.53519 26.3776 1.53932 27.6847C0.543439 28.9918 0.00280489 30.5889 0 32.2322V36.7067C0.00174556 38.2955 0.505939 39.8431 1.44045 41.1281C2.37497 42.413 3.69193 43.3695 5.20295 43.8607C5.20295 43.8607 5.20295 43.8607 5.20295 43.8998V51.0538C5.22275 51.3746 5.30595 51.6883 5.44773 51.9768C5.58951 52.2653 5.78707 52.5228 6.02897 52.7345C6.27087 52.9461 6.55233 53.1078 6.85708 53.21C7.16182 53.3122 7.4838 53.3531 7.80442 53.3301H11.0563C11.6996 53.3766 12.3351 53.1657 12.823 52.7437C13.3109 52.3217 13.6111 51.7232 13.6577 51.0798V44.2249H39.0221V51.0798C39.0687 51.7232 39.369 52.3217 39.8568 52.7437C40.3447 53.1657 40.9802 53.3766 41.6236 53.3301H44.8754C45.5188 53.3766 46.1543 53.1657 46.6421 52.7437C47.13 52.3217 47.4303 51.7232 47.4769 51.0798V43.9258C47.4769 43.9258 47.4769 43.9258 47.4769 43.8868C48.9879 43.3956 50.3049 42.4391 51.2394 41.1541C52.1739 39.8691 52.6781 38.3216 52.6798 36.7327V32.2322C52.6772 30.568 52.123 28.9516 51.1039 27.636C50.0848 26.3203 48.6583 25.3796 47.0476 24.961ZM13.4886 12.3569H38.3327L44.8754 24.7139H7.62882L13.4886 12.3569ZM11.7066 51.0798C11.7066 51.1709 11.4725 51.379 11.0563 51.379H7.80442C7.4207 51.379 7.15405 51.1709 7.15405 51.0798V44.2249H7.51826H11.7066V51.0798ZM45.5258 51.0798C45.5258 51.1709 45.2916 51.379 44.8754 51.379H41.6236C41.2398 51.379 40.9732 51.1709 40.9732 51.0798V44.2249H45.1616H45.5258V51.0798ZM50.7287 36.7132C50.7253 38.188 50.1374 39.6014 49.0939 40.6437C48.0505 41.6859 46.6364 42.2721 45.1616 42.2738H7.51826C6.04228 42.2721 4.62726 41.685 3.58359 40.6414C2.53992 39.5977 1.95283 38.1827 1.9511 36.7067V32.2322C1.95283 30.7562 2.53992 29.3412 3.58359 28.2975C4.62726 27.2538 6.04228 26.6667 7.51826 26.665H45.1616C46.6375 26.6667 48.0526 27.2538 49.0962 28.2975C50.1399 29.3412 50.727 30.7562 50.7287 32.2322V36.7132Z" fill="#197CFF"/>
<path d="M9.60627 30.3137C8.79461 30.3137 8.00117 30.5543 7.3263 31.0053C6.65143 31.4562 6.12544 32.0971 5.81483 32.847C5.50422 33.5969 5.42295 34.422 5.5813 35.2181C5.73964 36.0142 6.1305 36.7454 6.70443 37.3193C7.27836 37.8933 8.00959 38.2841 8.80565 38.4425C9.60171 38.6008 10.4269 38.5195 11.1767 38.2089C11.9266 37.8983 12.5675 37.3723 13.0185 36.6974C13.4694 36.0226 13.7101 35.2291 13.7101 34.4175C13.7101 33.3291 13.2777 32.2853 12.5081 31.5156C11.7385 30.746 10.6947 30.3137 9.60627 30.3137ZM9.60627 36.5637C9.1805 36.5637 8.76429 36.4374 8.41028 36.2009C8.05627 35.9644 7.78035 35.6281 7.61741 35.2348C7.45448 34.8414 7.41185 34.4086 7.49491 33.991C7.57798 33.5734 7.783 33.1898 8.08406 32.8888C8.38513 32.5877 8.7687 32.3827 9.18629 32.2996C9.60388 32.2166 10.0367 32.2592 10.4301 32.4221C10.8234 32.5851 11.1596 32.861 11.3962 33.215C11.6327 33.569 11.759 33.9852 11.759 34.411C11.759 34.6937 11.7033 34.9736 11.5951 35.2348C11.4869 35.496 11.3284 35.7333 11.1285 35.9332C10.9286 36.1331 10.6913 36.2916 10.4301 36.3998C10.1689 36.508 9.88897 36.5637 9.60627 36.5637Z" fill="#197CFF"/>
<path d="M42.9248 30.0469C42.1131 30.0469 41.3197 30.2876 40.6448 30.7385C39.9699 31.1894 39.4439 31.8304 39.1333 32.5802C38.8227 33.3301 38.7414 34.1553 38.8998 34.9513C39.0581 35.7474 39.449 36.4786 40.0229 37.0525C40.5968 37.6265 41.3281 38.0173 42.1241 38.1757C42.9202 38.334 43.7453 38.2527 44.4952 37.9421C45.2451 37.6315 45.886 37.1055 46.337 36.4307C46.7879 35.7558 47.0286 34.9624 47.0286 34.1507C47.0286 33.0623 46.5962 32.0185 45.8266 31.2489C45.057 30.4792 44.0132 30.0469 42.9248 30.0469ZM42.9248 36.2969C42.499 36.2969 42.0828 36.1707 41.7288 35.9341C41.3748 35.6976 41.0988 35.3614 40.9359 34.968C40.773 34.5746 40.7303 34.1418 40.8134 33.7242C40.8965 33.3066 41.1015 32.9231 41.4025 32.622C41.7036 32.3209 42.0872 32.1159 42.5048 32.0328C42.9224 31.9498 43.3552 31.9924 43.7486 32.1553C44.1419 32.3183 44.4781 32.5942 44.7147 32.9482C44.9512 33.3022 45.0775 33.7184 45.0775 34.1442C45.0775 34.7151 44.8507 35.2627 44.447 35.6664C44.0432 36.0701 43.4957 36.2969 42.9248 36.2969Z" fill="#197CFF"/>
<path d="M30.8922 35.1198H21.1367C20.878 35.1198 20.6298 35.2225 20.4469 35.4055C20.2639 35.5884 20.1611 35.8366 20.1611 36.0953C20.1611 36.354 20.2639 36.6022 20.4469 36.7851C20.6298 36.9681 20.878 37.0709 21.1367 37.0709H30.8922C31.1509 37.0709 31.3991 36.9681 31.582 36.7851C31.765 36.6022 31.8678 36.354 31.8678 36.0953C31.8678 35.8366 31.765 35.5884 31.582 35.4055C31.3991 35.2225 31.1509 35.1198 30.8922 35.1198Z" fill="#197CFF"/>
<path d="M27.3154 2.6015H24.7139V5.20297H27.3154V2.6015Z" fill="#197CFF"/>
<path d="M19.5114 0H16.91V2.60147H19.5114V0Z" fill="#197CFF"/>
<path d="M22.1122 2.6015H19.5107V5.20297H22.1122V2.6015Z" fill="#197CFF"/>
<path d="M24.7134 0H22.1119V2.60147H24.7134V0Z" fill="#197CFF"/>
<path d="M29.917 0H27.3155V2.60147H29.917V0Z" fill="#197CFF"/>
<path d="M32.5182 2.6015H29.9167V5.20297H32.5182V2.6015Z" fill="#197CFF"/>
<path d="M35.1201 0H32.5187V2.60147H35.1201V0Z" fill="#197CFF"/>
</svg>
